<svg version="1.1" viewBox="645.3 74.3 505.2 646.8" aria-labelledby="title" aria-describedby="description" role="img">
<style type="text/css">
	.st0{fill:#0076FF;}
</style>
	<title id="title">Thumbs Up</title>
	<desc id="description">A hand with a thumb pointed upwards in approval. Call it the approval thumb.</desc>
	<g>
		<path class="st0" d="M1139.6,367.6c-7.8-8-18.6-12.2-29.7-11.5l-134,7.5l73.7-84c10.5-12,13.5-27.9,9.4-42.2
			c-2.1-9.8-8.1-18.6-17.1-24.3c-0.3-0.2-176.2-102.4-176.2-102.4c-14.4-8.3-32.5-6.5-44.9,4.6l-86,76.7
			c-15.8,14.1-17.2,38.4-3.1,54.3c14.1,15.8,38.4,17.2,54.3,3.1l65.2-58.1l53.9,31.3L810,330.6c-39.4,6.4-74.9,24.6-102.8,50.8
			l49.7,49.7c22.4-20.4,52.3-32.9,84.9-32.9c69.7,0,126.3,56.7,126.3,126.3c0,32.7-12.5,62.5-32.9,84.9l49.7,49.7
			c33.1-35.2,53.4-82.5,53.4-134.6c0-31-7.2-60.4-20-86.5l51.9-2.9L1057.5,590c-1.7,21.2,14,39.7,35.2,41.4c1.1,0.1,2.1,0.1,3.2,0.1
			c19.8,0,36.6-15.2,38.3-35.3l16.2-198.7C1151.2,386.4,1147.3,375.5,1139.6,367.6z"/>
		<path class="st0" d="M1068.4,203c35.5,0,64.3-28.8,64.3-64.3c0-35.5-28.8-64.3-64.3-64.3c-35.5,0-64.3,28.8-64.3,64.3
			C1004.1,174.2,1032.9,203,1068.4,203z"/>
		<path class="st0" d="M841.8,650.9c-69.7,0-126.3-56.7-126.3-126.3c0-26.3,8.1-50.7,21.8-70.9l-50.2-50.2
			c-26.2,33.4-41.8,75.4-41.8,121.1c0,108.5,88,196.5,196.5,196.5c45.7,0,87.7-15.6,121.1-41.8l-50.2-50.2
			C892.5,642.9,868,650.9,841.8,650.9z"/>
	</g>
</svg>
