<?xml version="1.0" encoding="utf-8"?>
<!-- Generator: Adobe Illustrator 19.1.0, SVG Export Plug-In . SVG Version: 6.00 Build 0)  -->
<svg version="1.1" id="Layer_1" xmlns="http://www.w3.org/2000/svg" xmlns:xlink="http://www.w3.org/1999/xlink" x="0px" y="0px"
	 viewBox="872.9 365.7 50 64" style="enable-background:new 872.9 365.7 50 64;" xml:space="preserve">
<style type="text/css">
	.st0{fill:#0076FF;}
</style>
<g>
	<path class="st0" d="M921.8,394.7c-0.8-0.8-1.8-1.2-2.9-1.1l-13.3,0.7l7.3-8.3c1-1.2,1.3-2.8,0.9-4.2c-0.2-1-0.8-1.8-1.7-2.4
		c0,0-17.4-10.1-17.4-10.1c-1.4-0.8-3.2-0.6-4.4,0.5l-8.5,7.6c-1.6,1.4-1.7,3.8-0.3,5.4c1.4,1.6,3.8,1.7,5.4,0.3l6.4-5.8l5.3,3.1
		l-9.4,10.7c-3.9,0.6-7.4,2.4-10.2,5l4.9,4.9c2.2-2,5.2-3.3,8.4-3.3c6.9,0,12.5,5.6,12.5,12.5c0,3.2-1.2,6.2-3.3,8.4l4.9,4.9
		c3.3-3.5,5.3-8.2,5.3-13.3c0-3.1-0.7-6-2-8.6l5.1-0.3l-1.2,15.3c-0.2,2.1,1.4,3.9,3.5,4.1c0.1,0,0.2,0,0.3,0c2,0,3.6-1.5,3.8-3.5
		l1.6-19.7C922.9,396.6,922.6,395.5,921.8,394.7z"/>
	<path class="st0" d="M914.7,378.4c3.5,0,6.4-2.9,6.4-6.4c0-3.5-2.8-6.4-6.4-6.4c-3.5,0-6.4,2.9-6.4,6.4
		C908.4,375.6,911.2,378.4,914.7,378.4z"/>
	<path class="st0" d="M892.3,422.8c-6.9,0-12.5-5.6-12.5-12.5c0-2.6,0.8-5,2.2-7l-5-5c-2.6,3.3-4.1,7.5-4.1,12
		c0,10.7,8.7,19.5,19.5,19.5c4.5,0,8.7-1.5,12-4.1l-5-5C897.3,422,894.9,422.8,892.3,422.8z"/>
</g>
</svg>
